<mxfile host="app.diagrams.net" modified="2023-10-04T05:45:15.235Z" agent="Mozilla/5.0 (Windows NT 10.0; Win64; x64) AppleWebKit/537.36 (KHTML, like Gecko) Chrome/117.0.0.0 Safari/537.36" etag="hM9fSReGvPMVqGRcl0kI" version="22.0.2" type="github">
  <diagram id="C5RBs43oDa-KdzZeNtuy" name="Page-1">
    <mxGraphModel dx="954" dy="602" grid="0" gridSize="10" guides="1" tooltips="1" connect="1" arrows="1" fold="1" page="1" pageScale="1" pageWidth="827" pageHeight="1169" background="#FFFFFC" math="0" shadow="1">
      <root>
        <mxCell id="WIyWlLk6GJQsqaUBKTNV-0" />
        <mxCell id="WIyWlLk6GJQsqaUBKTNV-1" parent="WIyWlLk6GJQsqaUBKTNV-0" />
        <mxCell id="WIyWlLk6GJQsqaUBKTNV-2" value="" style="rounded=0;html=1;jettySize=auto;orthogonalLoop=1;fontSize=11;endArrow=block;endFill=0;endSize=8;strokeWidth=1;shadow=0;labelBackgroundColor=none;edgeStyle=orthogonalEdgeStyle;exitX=0.5;exitY=1;exitDx=0;exitDy=0;" parent="WIyWlLk6GJQsqaUBKTNV-1" source="rmJebblb5OLWrLW18DPS-15" target="WIyWlLk6GJQsqaUBKTNV-6" edge="1">
          <mxGeometry relative="1" as="geometry">
            <mxPoint x="163" y="158" as="sourcePoint" />
          </mxGeometry>
        </mxCell>
        <mxCell id="WIyWlLk6GJQsqaUBKTNV-6" value="User logged in?" style="rhombus;whiteSpace=wrap;html=1;shadow=0;fontFamily=Helvetica;fontSize=12;align=center;strokeWidth=1;spacing=6;spacingTop=-4;" parent="WIyWlLk6GJQsqaUBKTNV-1" vertex="1">
          <mxGeometry x="113" y="118" width="100" height="80" as="geometry" />
        </mxCell>
        <mxCell id="WIyWlLk6GJQsqaUBKTNV-8" value="Yes" style="rounded=0;html=1;jettySize=auto;orthogonalLoop=1;fontSize=11;endArrow=block;endFill=0;endSize=8;strokeWidth=1;shadow=0;labelBackgroundColor=none;edgeStyle=orthogonalEdgeStyle;exitX=0.5;exitY=1;exitDx=0;exitDy=0;entryX=0.5;entryY=0;entryDx=0;entryDy=0;" parent="WIyWlLk6GJQsqaUBKTNV-1" source="WIyWlLk6GJQsqaUBKTNV-6" target="rmJebblb5OLWrLW18DPS-19" edge="1">
          <mxGeometry x="-0.625" y="20" relative="1" as="geometry">
            <mxPoint as="offset" />
          </mxGeometry>
        </mxCell>
        <mxCell id="WIyWlLk6GJQsqaUBKTNV-11" value="Record Data&amp;nbsp;" style="rounded=1;whiteSpace=wrap;html=1;fontSize=12;glass=0;strokeWidth=1;shadow=0;" parent="WIyWlLk6GJQsqaUBKTNV-1" vertex="1">
          <mxGeometry x="103" y="378" width="120" height="40" as="geometry" />
        </mxCell>
        <mxCell id="rmJebblb5OLWrLW18DPS-1" value="" style="edgeStyle=orthogonalEdgeStyle;rounded=0;html=1;jettySize=auto;orthogonalLoop=1;fontSize=11;endArrow=block;endFill=0;endSize=8;strokeWidth=1;shadow=0;labelBackgroundColor=none;" edge="1" parent="WIyWlLk6GJQsqaUBKTNV-1" source="WIyWlLk6GJQsqaUBKTNV-6" target="rmJebblb5OLWrLW18DPS-0">
          <mxGeometry y="10" relative="1" as="geometry">
            <mxPoint as="offset" />
            <mxPoint x="213" y="248" as="sourcePoint" />
            <mxPoint x="443" y="248" as="targetPoint" />
          </mxGeometry>
        </mxCell>
        <mxCell id="rmJebblb5OLWrLW18DPS-0" value="User Login" style="shape=parallelogram;perimeter=parallelogramPerimeter;whiteSpace=wrap;html=1;fixedSize=1;size=0;" vertex="1" parent="WIyWlLk6GJQsqaUBKTNV-1">
          <mxGeometry x="263" y="128" width="120" height="60" as="geometry" />
        </mxCell>
        <mxCell id="rmJebblb5OLWrLW18DPS-7" value="No" style="text;html=1;strokeColor=none;fillColor=none;align=center;verticalAlign=middle;whiteSpace=wrap;rounded=0;" vertex="1" parent="WIyWlLk6GJQsqaUBKTNV-1">
          <mxGeometry x="208" y="128" width="60" height="30" as="geometry" />
        </mxCell>
        <mxCell id="rmJebblb5OLWrLW18DPS-9" value="" style="endArrow=classic;html=1;rounded=0;entryX=0.5;entryY=0;entryDx=0;entryDy=0;exitX=0.5;exitY=1;exitDx=0;exitDy=0;" edge="1" parent="WIyWlLk6GJQsqaUBKTNV-1" source="WIyWlLk6GJQsqaUBKTNV-11" target="rmJebblb5OLWrLW18DPS-10">
          <mxGeometry width="50" height="50" relative="1" as="geometry">
            <mxPoint x="333" y="503" as="sourcePoint" />
            <mxPoint x="163" y="573" as="targetPoint" />
          </mxGeometry>
        </mxCell>
        <mxCell id="rmJebblb5OLWrLW18DPS-10" value="" style="ellipse;whiteSpace=wrap;html=1;" vertex="1" parent="WIyWlLk6GJQsqaUBKTNV-1">
          <mxGeometry x="118" y="458" width="90" height="50" as="geometry" />
        </mxCell>
        <mxCell id="rmJebblb5OLWrLW18DPS-11" value="User Exit Appstack OpsRecord" style="text;html=1;strokeColor=none;fillColor=none;align=center;verticalAlign=middle;whiteSpace=wrap;rounded=0;" vertex="1" parent="WIyWlLk6GJQsqaUBKTNV-1">
          <mxGeometry x="133" y="468" width="60" height="30" as="geometry" />
        </mxCell>
        <mxCell id="rmJebblb5OLWrLW18DPS-15" value="" style="ellipse;whiteSpace=wrap;html=1;" vertex="1" parent="WIyWlLk6GJQsqaUBKTNV-1">
          <mxGeometry x="118" y="28" width="90" height="50" as="geometry" />
        </mxCell>
        <mxCell id="rmJebblb5OLWrLW18DPS-16" value="User go to AppStack OpsRecord" style="text;html=1;strokeColor=none;fillColor=none;align=center;verticalAlign=middle;whiteSpace=wrap;rounded=0;" vertex="1" parent="WIyWlLk6GJQsqaUBKTNV-1">
          <mxGeometry x="133" y="38" width="60" height="30" as="geometry" />
        </mxCell>
        <mxCell id="rmJebblb5OLWrLW18DPS-19" value="Admin User Logged?" style="rhombus;whiteSpace=wrap;html=1;shadow=0;fontFamily=Helvetica;fontSize=12;align=center;strokeWidth=1;spacing=6;spacingTop=-4;" vertex="1" parent="WIyWlLk6GJQsqaUBKTNV-1">
          <mxGeometry x="113" y="248" width="100" height="80" as="geometry" />
        </mxCell>
        <mxCell id="rmJebblb5OLWrLW18DPS-20" value="" style="endArrow=classic;html=1;rounded=0;entryX=0.5;entryY=0;entryDx=0;entryDy=0;exitX=0.5;exitY=1;exitDx=0;exitDy=0;" edge="1" parent="WIyWlLk6GJQsqaUBKTNV-1" source="rmJebblb5OLWrLW18DPS-19" target="WIyWlLk6GJQsqaUBKTNV-11">
          <mxGeometry width="50" height="50" relative="1" as="geometry">
            <mxPoint x="333" y="348" as="sourcePoint" />
            <mxPoint x="383" y="298" as="targetPoint" />
          </mxGeometry>
        </mxCell>
        <mxCell id="rmJebblb5OLWrLW18DPS-21" value="No" style="text;html=1;strokeColor=none;fillColor=none;align=center;verticalAlign=middle;whiteSpace=wrap;rounded=0;" vertex="1" parent="WIyWlLk6GJQsqaUBKTNV-1">
          <mxGeometry x="163" y="338" width="60" height="30" as="geometry" />
        </mxCell>
        <mxCell id="rmJebblb5OLWrLW18DPS-23" value="" style="endArrow=classic;html=1;rounded=0;entryX=0;entryY=0.5;entryDx=0;entryDy=0;" edge="1" parent="WIyWlLk6GJQsqaUBKTNV-1" source="rmJebblb5OLWrLW18DPS-19">
          <mxGeometry width="50" height="50" relative="1" as="geometry">
            <mxPoint x="213" y="398" as="sourcePoint" />
            <mxPoint x="273" y="288" as="targetPoint" />
            <Array as="points" />
          </mxGeometry>
        </mxCell>
        <mxCell id="rmJebblb5OLWrLW18DPS-27" style="edgeStyle=orthogonalEdgeStyle;rounded=0;orthogonalLoop=1;jettySize=auto;html=1;exitX=1;exitY=1;exitDx=0;exitDy=0;entryX=0;entryY=0.5;entryDx=0;entryDy=0;" edge="1" parent="WIyWlLk6GJQsqaUBKTNV-1" source="rmJebblb5OLWrLW18DPS-24">
          <mxGeometry relative="1" as="geometry">
            <mxPoint x="273" y="288" as="targetPoint" />
          </mxGeometry>
        </mxCell>
        <mxCell id="rmJebblb5OLWrLW18DPS-24" value="Yes" style="text;html=1;strokeColor=none;fillColor=none;align=center;verticalAlign=middle;whiteSpace=wrap;rounded=0;" vertex="1" parent="WIyWlLk6GJQsqaUBKTNV-1">
          <mxGeometry x="208" y="258" width="60" height="30" as="geometry" />
        </mxCell>
        <mxCell id="rmJebblb5OLWrLW18DPS-31" value="Apply Filters" style="rounded=0;whiteSpace=wrap;html=1;" vertex="1" parent="WIyWlLk6GJQsqaUBKTNV-1">
          <mxGeometry x="413" y="258" width="120" height="60" as="geometry" />
        </mxCell>
        <mxCell id="rmJebblb5OLWrLW18DPS-32" value="VIewing /&lt;br&gt;Complete Records" style="rhombus;whiteSpace=wrap;html=1;" vertex="1" parent="WIyWlLk6GJQsqaUBKTNV-1">
          <mxGeometry x="275" y="243" width="96" height="90" as="geometry" />
        </mxCell>
        <mxCell id="rmJebblb5OLWrLW18DPS-33" value="" style="endArrow=classic;html=1;rounded=0;entryX=0;entryY=0.5;entryDx=0;entryDy=0;exitX=1;exitY=0.5;exitDx=0;exitDy=0;" edge="1" parent="WIyWlLk6GJQsqaUBKTNV-1" source="rmJebblb5OLWrLW18DPS-32" target="rmJebblb5OLWrLW18DPS-31">
          <mxGeometry width="50" height="50" relative="1" as="geometry">
            <mxPoint x="333" y="348" as="sourcePoint" />
            <mxPoint x="383" y="298" as="targetPoint" />
          </mxGeometry>
        </mxCell>
        <mxCell id="rmJebblb5OLWrLW18DPS-41" style="edgeStyle=orthogonalEdgeStyle;rounded=0;orthogonalLoop=1;jettySize=auto;html=1;entryX=1;entryY=0.5;entryDx=0;entryDy=0;" edge="1" parent="WIyWlLk6GJQsqaUBKTNV-1" source="rmJebblb5OLWrLW18DPS-34" target="rmJebblb5OLWrLW18DPS-10">
          <mxGeometry relative="1" as="geometry">
            <Array as="points">
              <mxPoint x="643" y="483" />
            </Array>
          </mxGeometry>
        </mxCell>
        <mxCell id="rmJebblb5OLWrLW18DPS-34" value="Check Records" style="rounded=0;whiteSpace=wrap;html=1;" vertex="1" parent="WIyWlLk6GJQsqaUBKTNV-1">
          <mxGeometry x="583" y="258" width="120" height="60" as="geometry" />
        </mxCell>
        <mxCell id="rmJebblb5OLWrLW18DPS-35" value="" style="endArrow=classic;html=1;rounded=0;entryX=0;entryY=0.5;entryDx=0;entryDy=0;" edge="1" parent="WIyWlLk6GJQsqaUBKTNV-1" source="rmJebblb5OLWrLW18DPS-31" target="rmJebblb5OLWrLW18DPS-34">
          <mxGeometry width="50" height="50" relative="1" as="geometry">
            <mxPoint x="333" y="348" as="sourcePoint" />
            <mxPoint x="383" y="298" as="targetPoint" />
          </mxGeometry>
        </mxCell>
        <mxCell id="rmJebblb5OLWrLW18DPS-36" value="" style="endArrow=classic;html=1;rounded=0;exitX=0.5;exitY=1;exitDx=0;exitDy=0;entryX=0.5;entryY=0;entryDx=0;entryDy=0;" edge="1" parent="WIyWlLk6GJQsqaUBKTNV-1" source="rmJebblb5OLWrLW18DPS-32" target="rmJebblb5OLWrLW18DPS-37">
          <mxGeometry width="50" height="50" relative="1" as="geometry">
            <mxPoint x="333" y="348" as="sourcePoint" />
            <mxPoint x="323" y="388" as="targetPoint" />
          </mxGeometry>
        </mxCell>
        <mxCell id="rmJebblb5OLWrLW18DPS-40" style="edgeStyle=orthogonalEdgeStyle;rounded=0;orthogonalLoop=1;jettySize=auto;html=1;exitX=1;exitY=0.5;exitDx=0;exitDy=0;entryX=0.5;entryY=0;entryDx=0;entryDy=0;" edge="1" parent="WIyWlLk6GJQsqaUBKTNV-1" source="rmJebblb5OLWrLW18DPS-37" target="rmJebblb5OLWrLW18DPS-32">
          <mxGeometry relative="1" as="geometry">
            <Array as="points">
              <mxPoint x="734" y="398" />
              <mxPoint x="734" y="205" />
              <mxPoint x="323" y="205" />
            </Array>
          </mxGeometry>
        </mxCell>
        <mxCell id="rmJebblb5OLWrLW18DPS-37" value="Input Required &lt;br&gt;Data" style="shape=parallelogram;perimeter=parallelogramPerimeter;whiteSpace=wrap;html=1;fixedSize=1;" vertex="1" parent="WIyWlLk6GJQsqaUBKTNV-1">
          <mxGeometry x="263" y="368" width="120" height="60" as="geometry" />
        </mxCell>
        <mxCell id="rmJebblb5OLWrLW18DPS-38" value="Complete" style="text;html=1;strokeColor=none;fillColor=none;align=center;verticalAlign=middle;whiteSpace=wrap;rounded=0;" vertex="1" parent="WIyWlLk6GJQsqaUBKTNV-1">
          <mxGeometry x="323" y="333" width="60" height="30" as="geometry" />
        </mxCell>
        <mxCell id="rmJebblb5OLWrLW18DPS-39" value="View" style="text;html=1;strokeColor=none;fillColor=none;align=center;verticalAlign=middle;whiteSpace=wrap;rounded=0;" vertex="1" parent="WIyWlLk6GJQsqaUBKTNV-1">
          <mxGeometry x="357" y="268" width="60" height="30" as="geometry" />
        </mxCell>
      </root>
    </mxGraphModel>
  </diagram>
</mxfile>
